<?xml version="1.0" encoding="utf-8"?>
<!-- Generator: Adobe Illustrator 16.0.0, SVG Export Plug-In . SVG Version: 6.00 Build 0)  -->
<!DOCTYPE svg PUBLIC "-//W3C//DTD SVG 1.1//EN" "http://www.w3.org/Graphics/SVG/1.1/DTD/svg11.dtd">
<svg version="1.1" id="图层_1" xmlns="http://www.w3.org/2000/svg" xmlns:xlink="http://www.w3.org/1999/xlink" x="0px" y="0px"
	 width="229.33px" height="47.198px" viewBox="0 0 229.33 47.198" enable-background="new 0 0 229.33 47.198" xml:space="preserve">
<g>
	<path fill="#775448" d="M71.999,0c0.785,0.785,1.726,1.333,2.824,1.646c1.02,1.257,1.687,2.629,2.001,4.12l0.941,7.529
		c1.647,0.235,3.333,0.197,5.06-0.118l-0.589-0.47c-0.235-0.941,0.039-1.765,0.823-2.471c0.862-0.313,1.726-0.156,2.589,0.47
		c0.706,0.705,1.137,1.528,1.294,2.471l-0.471,0.941l-1.413,0.589l-6.941,0.353l-0.353,0.354c-0.157,3.216,0,6.313,0.471,9.295
		c1.647-0.313,3.255-0.862,4.824-1.647c0.391,0.705,0.391,1.45,0,2.234l-1.764,1.766l-3.06,2.001
		c-0.079,5.491-0.353,10.903-0.824,16.236l-1.059,0.354l-1.53-0.941c-1.02-1.414-2.079-2.825-3.176-4.235l0.47-0.473
		c0.549,0.236,1.059,0.549,1.53,0.941h0.471c-0.157-2.822-0.235-5.686-0.235-8.589l-0.235-0.236
		c-1.726,1.021-3.491,1.452-5.294,1.296c-1.021-0.156-1.883-0.627-2.588-1.412c-0.785-0.784-1.099-1.726-0.942-2.823l1.294-0.354
		c-0.707,0.08-1.294-0.118-1.765-0.587l0.235-0.354c2.824-0.234,5.648-0.705,8.472-1.411l0.471-0.471l-0.941-10.825
		c-3.138,0.156-6.198-0.078-9.177-0.705c-0.314-0.157-0.314-0.394,0-0.707l9.06-0.117c-0.314-4.158-0.628-8.394-0.942-12.708
		L71.999,0z M73.293,5.53c-0.235,0.628-0.197,1.178,0.118,1.646l0.118-1.529L73.293,5.53z M73.528,7.059v2.237h0.235
		c0.078-0.707,0.039-1.414-0.118-2.119L73.528,7.059z M75.529,41.888v0.354l0.117-0.236L75.529,41.888z M80.353,25.533l-0.706,0.236
		l-0.353,0.352c0.392,0.236,0.784,0.079,1.177-0.47L80.353,25.533z M84.118,11.296l-0.588,0.589l0.234,0.235l0.824-0.59
		L84.118,11.296z M96.708,2.705l0.824,0.591c1.883,2.745,3.255,5.726,4.118,8.939l0.354,9.531l0.706,0.118
		c1.725,0.08,3.451-0.118,5.177-0.587l0.823-1.529c1.02-0.785,2.157-1.06,3.413-0.825c1.254,2.589,1.765,5.412,1.529,8.473
		c-0.235,3.608-0.667,7.139-1.294,10.589c-0.549,2.118-1.176,4.078-1.882,5.885c-0.863,0.313-1.646,0.232-2.353-0.236
		c-2.824,0.705-5.688,0.941-8.589,0.705c-3.06-0.236-6.001-0.861-8.826-1.883l-0.353,0.59l-0.706,0.118
		c-0.94-0.708-1.451-1.688-1.53-2.942c-0.785-4.706-1.53-9.451-2.235-14.237l-0.354-4.588c0-0.863,0.079-1.766,0.236-2.707h1.059
		l2.118,1.528l1.412,1.766h6.119c-0.392-4.472-0.627-9.021-0.707-13.648c-0.157-1.334,0.039-2.588,0.589-3.767l0.235,0.237
		c0.157,4.392,0.589,8.668,1.295,12.824c-0.314-4.156-0.471-8.314-0.471-12.473c-0.941-0.706-1.294-1.53-1.059-2.472H96.708z
		 M86.471,19.885l-0.353,0.234l0.353,1.179l1.177-0.236L86.471,19.885z M89.531,30.946v0.705h0.235l0.117-0.705H89.531z
		 M90.825,23.181l0.471,2.353c-0.235,1.568-0.118,3.059,0.353,4.472c1.96,0.47,3.96,0.627,6.001,0.47l-0.706-7.06l-4.942-0.234
		H90.825z M91.531,31.416l-0.119,8.002c-0.313,0.705-0.471,1.411-0.471,2.115c2.354,0.709,4.785,1.061,7.296,1.061l0.353-0.352
		c-0.471-3.296-0.823-6.629-1.059-10.003l-5.53-0.823H91.531z M98.708,8.236v0.353l0.235-0.234L98.708,8.236z M107.298,31.651
		c-1.963,0.628-3.923,0.862-5.883,0.706l-0.471,0.471c-0.393,3.373-0.745,6.669-1.059,9.884c2.431,0.313,4.824,0.117,7.177-0.588
		l0.353-1.178v-9.176L107.298,31.651z M106.945,22.944l-5.059,0.471l-0.589,7.296c1.883,0.235,3.804,0.038,5.766-0.588l0.471-0.473
		l-0.471-6.588L106.945,22.944z M108.122,22.827l0.235,2.235h0.235c0.156-0.707,0.236-1.45,0.236-2.235H108.122z M109.533,39.653
		l-0.353,0.233l0.236,0.705l0.471-0.469l-0.235-0.353L109.533,39.653z M110.945,19.885l-0.823,0.234l-0.354,0.355l0.823,0.469
		l0.471,1.178c0,1.491,0.196,2.941,0.589,4.354h0.235V22.59c-0.158-0.939-0.432-1.803-0.824-2.588L110.945,19.885z M109.887,29.65
		v4.708l0.235,0.234l0.117-4.942H109.887z"/>
	<path fill="#775448" d="M144.951,13.414l0.94,0.587c0.862,1.727,0.824,3.412-0.117,5.061c-2.197,3.14-4.629,5.963-7.295,8.473
		c1.333,1.411,2.274,3.02,2.823,4.823c0.235,4.001,0.235,7.922,0,11.765c-0.235,1.099-0.667,2.081-1.294,2.943
		c-0.47,0.236-0.823,0.156-1.059-0.236l-0.47-1.293c-0.785-5.413-1.334-10.903-1.647-16.473l-4.236,3.294
		c-1.413,1.098-2.903,1.528-4.472,1.294c-0.705-0.313-0.862-0.783-0.47-1.412l0.941-0.705c2.51-2.433,4.825-5.06,6.942-7.884
		c1.49-2.118,2.862-4.314,4.118-6.588c-3.139,0.392-6.236,0.509-9.295,0.351c-1.647,0-3.217-0.313-4.707-0.939v-0.472h10.825
		c1.568,0.08,3.059-0.194,4.471-0.823l0.706-1.294l0.941-0.471H144.951z M133.066,1.059c2.432,0.158,4.549,1.1,6.354,2.824
		c0.784,1.021,1.294,2.158,1.53,3.412c-0.157,0.941-0.471,1.805-0.942,2.589l-1.411,1.06c-1.256,0.313-2.236,0.038-2.942-0.823
		l-1.412-2.825l-3.06-5.529l0.471-0.472L133.066,1.059z M132.713,2.472l0.706,0.94l0.352-0.234l1.413-0.236V2.705l-1.177-0.233
		H132.713z M135.301,3.06l0.354,0.236l1.53,1.292l1.883,2.471c0.078-0.39,0.038-0.862-0.118-1.411l-1.53-1.646L135.89,3.06H135.301z
		 M137.067,8.941l-0.118,0.472l0.588,0.353c0.079-0.235,0-0.47-0.235-0.705L137.067,8.941z M139.655,20.002v0.354l0.118-0.237
		L139.655,20.002z M143.303,26.944c1.569,0.628,3.059,1.413,4.472,2.354c0.627,1.413,0.509,2.668-0.354,3.765
		c-0.785,0.707-1.568,0.785-2.353,0.236l-4.941-5.413c-0.315-0.313-0.315-0.626,0-0.941l0.941-0.235L143.303,26.944z M139.891,19.65
		v0.234l0.236-0.234H139.891z M140.244,18.943v0.471l0.235-0.353L140.244,18.943z M140.597,18.473v0.471l0.235-0.353L140.597,18.473
		z M140.832,18.004v0.351l0.353-0.351H140.832z M141.42,17.297h-0.235v0.589l0.235-0.473V17.297z M141.538,16.708l-0.235,0.472
		h0.354v-0.354L141.538,16.708z M142.127,28.357v0.352l0.234-0.234L142.127,28.357z M142.479,14.474
		c-0.393,0.393-0.431,0.705-0.118,0.941c0.313-0.156,0.471-0.433,0.471-0.825L142.479,14.474z M144.48,14.708l-0.235,0.823
		c0.156,0.627,0.392,1.177,0.706,1.648c0.391-0.784,0.353-1.608-0.118-2.472H144.48z M144.597,17.297v0.589h0.235v-0.589H144.597z
		 M150.952,6.472c0.391,0,0.744,0.156,1.058,0.47c0.55,1.334,1.373,2.472,2.472,3.413l0.94,2.706
		c0.55,8.237,0.666,16.434,0.354,24.592c-0.157,1.962,0.274,3.687,1.296,5.177c2.978,0.157,5.959,0.512,8.939,1.061h4.003
		c0-2.512,0.194-5.061,0.587-7.649l0.706-1.412c1.178,1.49,2.001,3.177,2.47,5.059c0.237,1.884,0,3.53-0.705,4.944l0.354,0.232
		c0.076,0.316,0,0.591-0.236,0.823c-3.767,0.237-7.491,0.119-11.178-0.351c-3.06-0.315-5.962-1.098-8.707-2.353
		c-1.728-1.727-2.511-3.884-2.353-6.473c-0.393-9.648-0.628-19.336-0.708-29.062C150.402,7.257,150.636,6.864,150.952,6.472z
		 M152.245,25.063v1.765l0.117-1.646L152.245,25.063z M154.833,42.006l0.236,0.236l0.118-0.236H154.833z M171.542,38.829
		c-0.235,1.256-0.155,2.434,0.236,3.531l0.352-0.354l-0.352-3.177H171.542z"/>
	<path fill="#775448" d="M186.133,23.532c0.783,0.551,1.646,0.667,2.588,0.354l0.706,0.352c0.705,1.177,1.528,2.236,2.47,3.178
		c1.647,0.55,3.412,0.705,5.296,0.47c1.568,0,3.098-0.194,4.588-0.588l1.53-2.235l1.059-0.589l1.06,0.354
		c0.861,2.98,1.02,6.078,0.471,9.294c-0.629,3.452-1.49,6.707-2.589,9.768l-0.705-0.236l-0.471-0.941
		c-1.413,0.392-2.824,0.587-4.237,0.587c-1.804,0-3.568-0.076-5.293-0.233l-0.118,1.884l-0.353,0.705h-1.061l-0.705-0.823
		c-0.471,0-0.903-0.159-1.295-0.473c-2.117-4.548-3.451-9.333-4-14.354c-0.314-1.727-0.235-3.45,0.235-5.177h0.235
		c0.627,5.097,1.685,10.039,3.177,14.825h0.353l-1.883-9.648c-0.471-1.647-0.471-3.256,0-4.824l-1.294-1.177L186.133,23.532z
		 M190.839,35.416l-0.236,0.235l0.353,3.648l0.118-3.765L190.839,35.416z M192.604,0.589c2.509,0.549,4.822,1.569,6.941,3.058
		l0.588,2.001c5.099,0.237,10.197,0.196,15.297-0.117c1.332-1.255,2.901-2,4.706-2.234l1.176,0.939
		c0.55,3.14,0.668,6.237,0.354,9.296c-0.628,2.589-1.373,5.1-2.234,7.53c-1.021,0.08-2.002-0.194-2.943-0.824l-0.47-0.469
		c-1.411,0.706-2.864,1.019-4.354,0.939c-4.081,0.315-8.08,0.235-12.002-0.233c-0.157,0.549-0.314,1.02-0.471,1.41
		c-0.628,0.316-1.177,0.236-1.647-0.234l-0.234,0.471h-0.823c-0.786-0.627-1.217-1.49-1.295-2.588
		c-1.334-5.648-2.001-11.335-2.001-17.062l1.646,7.412h0.236c-0.236-2.196-0.471-4.472-0.705-6.824l0.234-0.706
		c-0.863-0.314-1.608-0.745-2.236-1.295L192.604,0.589z M192.367,29.063l0.237,12.707h6.823l0.942-0.237v-12.47
		c-2.433,0.314-4.825,0.314-7.179,0H192.367z M195.074,10.237v0.47l0.118-0.353L195.074,10.237z M196.133,4.588
		c0,1.099,0.235,2.081,0.707,2.943l0.118-0.59l-0.59-2.354H196.133z M196.722,18.473l-0.234,0.236l0.471,1.884l0.234-0.236
		l-0.234-1.766L196.722,18.473z M196.958,7.531v0.823l0.116-0.705L196.958,7.531z M197.781,4.119c0,0.627,0.234,1.137,0.705,1.528
		c0.078-0.471-0.04-0.979-0.353-1.528H197.781z M216.019,6.824l-0.588,0.589l-0.472-0.354h-14.708
		c-0.313,4.081-0.51,8.12-0.588,12.12h11.648c1.49-0.235,3.021-0.352,4.59-0.352c0.234-3.923,0.313-7.884,0.234-11.886
		L216.019,6.824z M227.784,23.181c1.335,3.294,1.804,6.862,1.412,10.705c-0.155,2.433-0.626,4.788-1.412,7.061l-0.823,0.587
		c-0.235,0.786-0.627,1.373-1.176,1.766c-0.551,0.316-0.982,0.236-1.294-0.233l-0.237-1.295c-2.433,0.156-4.784-0.039-7.059-0.588
		c-0.079,0.626-0.274,1.137-0.589,1.529l-0.588,0.117l-0.588-0.587l-0.942,1.293h-0.823c-1.334-3.999-2.235-8.196-2.706-12.589
		l-0.354-5.177c0.783-0.473,1.686-0.549,2.707-0.236l1.295,0.824l1.646,1.764c2.354,0.315,4.744,0.236,7.177-0.235
		c0.314-1.331,1.02-2.548,2.118-3.647l1.412-1.058H227.784z M224.608,29.063c-2.589,0.627-5.139,0.705-7.649,0.234l-0.234,0.234
		c0.078,3.53,0.234,6.942,0.471,10.238c2.274,0.471,4.588,0.589,6.942,0.353c0.234-0.236,0.194-0.509-0.118-0.823l0.234-0.118
		l0.472-10L224.608,29.063z M219.077,4.588l-1.647,0.824l0.236,0.473l0.472-0.473c0.471-0.235,0.939-0.156,1.41,0.235l0.823,1.647
		c0-0.861-0.156-1.725-0.469-2.589L219.077,4.588z M224.608,26.944l-0.354,0.707l0.354,0.117l0.234-0.706L224.608,26.944z
		 M226.373,30.946v0.705l0.117-0.589L226.373,30.946z"/>
</g>
<g>
	<g>
		<g>
			<path fill="#775448" d="M25.01,16.578c-0.819-3.117-1.037-6.81-3.103-9.428c-2.212-2.804-6.063-2.693-9.158-1.548
				C10.086,6.587,8.656,9.01,9.41,11.78c0.813,2.99,3.772,4.991,6.465,6.094c1.707,0.699,2.442-2.068,0.759-2.757
				c-1.854-0.761-3.776-2.136-4.467-4.097c-0.794-2.254,1.948-3.014,3.626-3.237c5.419-0.725,5.461,5.757,6.458,9.554
				C22.721,19.12,25.479,18.362,25.01,16.578L25.01,16.578z"/>
		</g>
		<g>
			<path fill="#775448" d="M26.501,17.245c0.63-2.153,1.027-4.372,1.79-6.485c0.908-2.516,2.638-3.214,5.19-2.8
				c1.834,0.297,3.9,1.174,3.251,3.323c-0.583,1.933-2.854,3.284-4.604,3.945c-1.708,0.646-0.969,3.411,0.76,2.758
				c2.9-1.097,5.462-2.974,6.602-5.942c1.033-2.693-0.751-5.251-3.218-6.241c-3.078-1.235-6.895-1.409-9.185,1.335
				c-2.128,2.55-2.443,6.27-3.343,9.348C23.225,18.26,25.985,19.012,26.501,17.245L26.501,17.245z"/>
		</g>
	</g>
	<g>
		<path fill="#775448" d="M48.042,23.151c2.356-7.346-0.824-7.567-7.257-7.48c-12.836,0.174-25.646,0.938-38.486,0.518
			c-0.478-0.017-1.014,0.277-1.235,0.708c-4.914,9.598,8.518,7.305,13.579,7.305c10.673,0,21.347,0,32.021,0
			c1.844,0,1.844-2.859,0-2.859c-11.146,0-22.292,0-33.438,0c-2.631,0-5.262,0-7.892,0c-2.795,0-3.817-2.319-0.205-2.201
			c6.879,0.226,13.778-0.011,20.654-0.206c3.179-0.092,21.495-2.756,19.501,3.457C44.719,24.152,47.48,24.9,48.042,23.151z"/>
	</g>
	<g>
		<path fill="#775448" d="M38.607,23.553c0,4.924,0,9.847,0,14.769c0,2.182-0.772,1.004-3.143,0.825
			c-2.852-0.216-5.716-0.249-8.574-0.271c-1.341-0.01-14.021,1.069-14.14,0.86c-0.723-1.277-0.248-4.989-0.33-6.457
			c-0.172-3.064-0.346-6.119-0.394-9.188c-0.029-1.843-2.889-1.846-2.86,0c0.06,3.824,0.307,7.633,0.521,11.449
			c0.125,2.231-0.237,4.174,0.863,6.116c0.233,0.411,0.748,0.744,1.234,0.709c5.032-0.37,10.059-0.598,15.104-0.629
			c3.783-0.024,9.565,1.556,13.121,0.577c0.701-0.193,1.456-1.125,1.456-1.854c0-5.635,0-11.271,0-16.905
			C41.467,21.708,38.607,21.708,38.607,23.553L38.607,23.553z"/>
	</g>
	<g>
		<path fill="#775448" d="M23.744,17.539c-0.996,7.091-0.293,14.182-0.231,21.307c0.016,1.844,2.876,1.846,2.86,0
			c-0.059-6.845-0.827-13.732,0.129-20.548C26.754,16.495,23.999,15.718,23.744,17.539L23.744,17.539z"/>
	</g>
</g>
</svg>
